<?xml version="1.0" encoding="UTF-8" standalone="no"?>
<!DOCTYPE svg PUBLIC "-//W3C//DTD SVG 1.1//EN" "http://www.w3.org/Graphics/SVG/1.1/DTD/svg11.dtd">
<svg width="100%" height="100%" viewBox="0 0 1200 1200" version="1.1" xmlns="http://www.w3.org/2000/svg" xmlns:xlink="http://www.w3.org/1999/xlink" xml:space="preserve" xmlns:serif="http://www.serif.com/" style="fill-rule:evenodd;clip-rule:evenodd;stroke-linecap:round;stroke-linejoin:round;stroke-miterlimit:1;">
    <g transform="matrix(1,0,0,1,-31.0448,-534.864)">
        <g transform="matrix(1,0,0,1,393.693,820.833)">
            <text x="0px" y="0px" style="font-family:'Menlo-Regular', 'Menlo', monospace;font-size:32px;fill:rgb(78,74,255);">## Some Computation</text>
        </g>
        <g transform="matrix(1,0,0,1,393.693,911.496)">
            <text x="0px" y="0px" style="font-family:'Menlo-Regular', 'Menlo', monospace;font-size:32px;">Here is a computation:</text>
        </g>
        <g transform="matrix(1,0,0,1,392.039,1002.17)">
            <text x="0px" y="0px" style="font-family:'Menlo-Regular', 'Menlo', monospace;font-size:32px;fill:rgb(114,122,145);">```{reproducibleR addition}</text>
        </g>
        <g transform="matrix(1,0,0,1,394.693,1047.5)">
            <text x="0px" y="0px" style="font-family:'Menlo-Regular', 'Menlo', monospace;font-size:32px;">my_sum</text>
        </g>
        <g transform="matrix(1,0,0,1,391.693,1094.03)">
            <g transform="matrix(32,0,0,32,57.7969,0)">
            </g>
            <text x="0px" y="0px" style="font-family:'Menlo-Regular', 'Menlo', monospace;font-size:32px;fill:rgb(114,122,145);">```</text>
        </g>
        <g transform="matrix(1,0,0,1,523.613,1047.5)">
            <text x="0px" y="0px" style="font-family:'Menlo-Regular', 'Menlo', monospace;font-size:32px;fill:rgb(114,122,145);">&lt;-</text>
        </g>
        <g transform="matrix(1,0,0,1,579.293,1047.5)">
            <text x="0px" y="0px" style="font-family:'Menlo-Regular', 'Menlo', monospace;font-size:32px;">x</text>
        </g>
        <g transform="matrix(1,0,0,1,616.413,1047.5)">
            <text x="0px" y="0px" style="font-family:'Menlo-Regular', 'Menlo', monospace;font-size:32px;fill:rgb(114,122,145);">+</text>
        </g>
        <g transform="matrix(1,0,0,1,653.533,1047.5)">
            <text x="0px" y="0px" style="font-family:'Menlo-Regular', 'Menlo', monospace;font-size:32px;fill:rgb(78,74,255);">1</text>
        </g>
        <g transform="matrix(0.494291,-0.494291,0.494291,0.494291,95.8876,882.228)">
            <path d="M159.897,375.631L159.897,389.943L174.209,389.943L159.897,375.631Z" style="fill:rgb(114,122,145);"/>
        </g>
        <g transform="matrix(-0.494291,0.494291,-0.494291,-0.494291,639.449,1193.12)">
            <path d="M159.897,375.631L159.897,389.943L174.209,389.943L159.897,375.631Z" style="fill:rgb(114,122,145);"/>
        </g>
        <g transform="matrix(1,0,0,1,380.241,1314.84)">
            <g transform="matrix(32,0,0,32,250.453,0)">
            </g>
            <text x="0px" y="0px" style="font-family:'Menlo-Bold', 'Menlo', monospace;font-weight:700;font-size:32px;fill:rgb(255,149,0);">19cb53e5e0...</text>
        </g>
        <g transform="matrix(1,0,0,1,679.354,1315)">
            <g transform="matrix(32,0,0,32,250.453,0)">
            </g>
            <text x="0px" y="0px" style="font-family:'Menlo-Bold', 'Menlo', monospace;font-weight:700;font-size:32px;fill:rgb(36,34,158);">1850e75h73...</text>
        </g>
    </g>
    <g transform="matrix(0.930307,0,0,0.930307,186.752,-631.112)">
        <g transform="matrix(1,0,0,1,-63.8932,29.7217)">
            <g transform="matrix(1,0,0,1,16.9314,25.7988)">
                <rect x="536.579" y="1274.13" width="148.924" height="148.924" style="fill:none;stroke:rgb(36,34,158);stroke-width:4.3px;"/>
            </g>
            <g transform="matrix(2.86644,0,0,2.86644,-406.097,953.443)">
                <path d="M350.981,161.828C351.214,161.457 351.702,161.347 352.072,161.581C352.443,161.814 352.553,162.302 352.319,162.672L350.714,165.236C350.48,165.607 349.993,165.717 349.622,165.483C349.251,165.25 349.141,164.762 349.375,164.392L350.981,161.828ZM342.431,151.675C342.541,152.099 342.29,152.533 341.866,152.643C341.442,152.754 341.008,152.503 340.898,152.079C340.768,151.578 340.654,151.074 340.558,150.563C340.464,150.056 340.391,149.552 340.337,149.048C340.304,148.721 340.277,148.387 340.264,148.05C340.244,147.686 340.238,147.348 340.238,147.041C340.238,141.376 342.535,136.248 346.248,132.539C349.957,128.826 355.085,126.529 360.751,126.529C366.416,126.529 371.547,128.809 375.263,132.509C378.972,136.201 381.263,141.309 381.263,146.965C381.263,147.402 380.905,147.759 380.468,147.759C380.031,147.759 379.673,147.402 379.673,146.965C379.673,141.743 377.56,137.036 374.145,133.634C370.719,130.222 365.985,128.118 360.751,128.118C355.526,128.118 350.795,130.235 347.37,133.66C343.948,137.086 341.828,141.816 341.828,147.041C341.828,147.388 341.833,147.699 341.847,147.976C341.862,148.28 341.884,148.584 341.914,148.888C341.965,149.355 342.031,149.819 342.118,150.28C342.205,150.737 342.308,151.201 342.432,151.675L342.431,151.675ZM344.567,158.87C344.237,159.157 343.736,159.12 343.449,158.79C343.162,158.459 343.199,157.958 343.529,157.671C343.729,157.498 343.906,157.291 344.057,157.05C344.214,156.803 344.344,156.513 344.447,156.182C344.978,154.493 344.657,152.73 344.333,150.944C344.113,149.729 343.889,148.503 343.899,147.225C343.94,140.681 348.033,135.346 353.388,132.612C355.634,131.463 358.112,130.776 360.609,130.646C363.116,130.515 365.643,130.956 367.977,132.064C373.189,134.542 377.422,140.341 378.303,150.61C378.34,151.047 378.013,151.431 377.575,151.468C377.138,151.505 376.754,151.178 376.717,150.74C375.893,141.129 372.037,135.754 367.299,133.5C365.209,132.505 362.943,132.115 360.689,132.228C358.422,132.345 356.165,132.976 354.109,134.024C349.238,136.508 345.519,141.332 345.482,147.228C345.476,148.363 345.685,149.518 345.893,150.664C346.253,152.647 346.607,154.603 345.963,156.656C345.819,157.117 345.629,157.531 345.398,157.898C345.165,158.269 344.884,158.593 344.567,158.87ZM376.701,153.909C376.701,153.468 377.058,153.114 377.495,153.114C377.933,153.114 378.29,153.471 378.29,153.909L378.29,157.241C378.29,157.681 377.933,158.035 377.495,158.035C377.058,158.035 376.701,157.678 376.701,157.241L376.701,153.909ZM346.918,162.105C346.59,162.395 346.09,162.365 345.799,162.038C345.509,161.711 345.539,161.21 345.866,160.92C346.851,160.052 347.569,158.93 347.983,157.524C348.41,156.075 348.517,154.316 348.266,152.209C347.806,149.946 347.722,147.856 347.993,145.969C348.273,143.996 348.941,142.247 349.959,140.751C350.206,140.391 350.7,140.297 351.061,140.544C351.421,140.791 351.515,141.286 351.268,141.646C350.386,142.938 349.809,144.464 349.562,146.193C349.318,147.906 349.395,149.812 349.819,151.892C349.83,151.932 349.839,151.972 349.842,152.012C350.122,154.339 349.992,156.312 349.504,157.972C349.004,159.674 348.125,161.036 346.917,162.105L346.918,162.105ZM354.987,138.204C354.606,138.424 354.122,138.294 353.902,137.914C353.682,137.533 353.812,137.049 354.192,136.829C355.08,136.314 356.028,135.907 357.007,135.61C359.691,134.795 362.605,134.819 365.256,135.747C367.92,136.682 370.314,138.525 371.943,141.346C372.488,142.284 372.945,143.336 373.299,144.501C373.803,146.163 374.147,148.02 374.324,150.059C374.498,152.066 374.507,154.269 374.354,156.666C374.354,156.689 374.351,156.71 374.348,156.733L373.794,162.202C373.751,162.636 373.363,162.956 372.926,162.913C372.492,162.87 372.171,162.482 372.215,162.045L372.769,156.57L372.769,156.567C372.916,154.26 372.906,152.13 372.739,150.19C372.572,148.247 372.252,146.501 371.784,144.962C371.47,143.924 371.06,142.986 370.572,142.141C369.147,139.67 367.057,138.058 364.736,137.243C362.403,136.425 359.835,136.405 357.468,137.123C356.61,137.39 355.779,137.747 354.988,138.205L354.987,138.204ZM353.241,159.297C353.164,159.728 352.753,160.018 352.323,159.941C351.892,159.865 351.602,159.454 351.678,159.023C351.862,157.995 351.965,156.843 352.002,155.588C352.039,154.316 352.008,152.924 351.922,151.435C351.905,151.114 351.875,150.717 351.849,150.33C351.668,147.796 351.525,145.753 353.007,143.118C353.334,142.538 353.725,141.997 354.192,141.503C354.66,141.009 355.197,140.561 355.808,140.171C355.848,140.145 355.888,140.124 355.932,140.107C356.836,139.673 357.735,139.336 358.633,139.115C359.557,138.888 360.475,138.788 361.38,138.839C361.818,138.861 362.155,139.233 362.131,139.67C362.109,140.107 361.737,140.444 361.3,140.421C360.549,140.381 359.784,140.464 359.007,140.655C358.232,140.845 357.437,141.142 356.629,141.529C356.139,141.846 355.711,142.2 355.347,142.588C354.974,142.985 354.656,143.419 354.393,143.893C353.144,146.116 353.271,147.946 353.431,150.216C353.454,150.55 353.478,150.897 353.505,151.345C353.591,152.86 353.621,154.296 353.585,155.628C353.541,156.983 353.435,158.212 353.241,159.297ZM364.422,141.389C364.048,141.162 363.931,140.671 364.158,140.301C364.385,139.927 364.872,139.81 365.246,140.037C365.49,140.187 365.727,140.348 365.957,140.521C366.184,140.692 366.408,140.878 366.632,141.082C369.656,143.83 370.681,148.247 370.748,152.867C370.812,157.368 369.967,162.062 369.192,165.524C369.099,165.951 368.675,166.221 368.247,166.125C367.82,166.031 367.55,165.607 367.647,165.18C368.401,161.801 369.229,157.231 369.166,152.884C369.105,148.657 368.204,144.654 365.563,142.254C365.38,142.087 365.189,141.93 364.999,141.787C364.809,141.636 364.615,141.506 364.422,141.389ZM354.643,166.488C354.389,166.846 353.895,166.932 353.538,166.679C353.181,166.425 353.094,165.931 353.348,165.574C353.909,164.782 354.383,163.914 354.77,162.973C355.157,162.025 355.458,160.993 355.665,159.878C356.052,157.798 355.868,155.147 355.69,152.643C355.63,151.799 355.573,150.974 355.537,150.126C355.483,148.887 355.46,147.672 355.69,146.567C355.941,145.362 356.481,144.317 357.566,143.556C357.81,143.385 358.074,143.232 358.358,143.102C358.641,142.972 358.949,142.855 359.279,142.761C359.526,142.691 359.77,142.634 360.007,142.594C361.633,142.317 362.921,142.738 363.916,143.606C364.861,144.43 365.502,145.646 365.896,147.024C366.013,147.438 366.11,147.869 366.187,148.31C366.227,148.55 366.263,148.794 366.29,149.038C366.316,149.278 366.34,149.525 366.357,149.779C366.524,152.296 366.414,155.438 366.073,158.512C365.746,161.46 365.205,164.365 364.487,166.625C364.354,167.042 363.91,167.273 363.492,167.143C363.075,167.009 362.845,166.565 362.975,166.148C363.656,164.001 364.174,161.203 364.491,158.342C364.821,155.354 364.928,152.313 364.768,149.882C364.754,149.672 364.735,149.452 364.708,149.225C364.685,149.011 364.651,148.797 364.614,148.587C364.547,148.206 364.464,147.832 364.364,147.468C364.05,146.363 363.563,145.415 362.868,144.811C362.227,144.253 361.376,143.986 360.274,144.173C360.097,144.203 359.91,144.247 359.713,144.303C359.456,144.377 359.226,144.46 359.022,144.557C358.815,144.654 358.632,144.758 358.475,144.868C357.777,145.355 357.42,146.066 357.246,146.901C357.053,147.832 357.076,148.937 357.123,150.069C357.156,150.82 357.216,151.675 357.276,152.55C357.457,155.147 357.65,157.895 357.223,160.178C356.996,161.397 356.665,162.529 356.235,163.584C355.807,164.625 355.273,165.597 354.642,166.488L354.643,166.488ZM360.081,147.278C360.001,146.848 360.288,146.434 360.719,146.357C361.15,146.277 361.564,146.564 361.641,146.995C362.045,149.171 362.238,151.371 362.245,153.582C362.251,155.782 362.071,157.992 361.731,160.205C361.664,160.636 361.26,160.933 360.826,160.866C360.395,160.799 360.098,160.396 360.165,159.962C360.495,157.831 360.669,155.701 360.662,153.582C360.657,151.468 360.469,149.365 360.081,147.278ZM359.173,162.689C359.267,162.262 359.691,161.991 360.118,162.088C360.546,162.182 360.816,162.606 360.719,163.033L360.025,166.161C359.931,166.589 359.507,166.859 359.08,166.762C358.653,166.669 358.382,166.245 358.479,165.817L359.173,162.689Z" style="fill:rgb(36,34,158);fill-rule:nonzero;"/>
            </g>
        </g>
        <g transform="matrix(1.07491,0,0,1.07491,-44.2735,516.59)">
            <path d="M565.955,756.396L565.955,716.811" style="fill:none;stroke:rgb(36,34,158);stroke-width:4px;stroke-miterlimit:1.5;"/>
        </g>
    </g>
    <g id="path179-1">
    </g>
    <g transform="matrix(2.66667,0,0,2.66667,-446.801,283.538)">
        <g id="path179-11" serif:id="path179-1">
            <g>
                <g transform="matrix(1,0,0,1,6.7981,0)">
                    <path d="M350.981,161.828C351.214,161.457 351.702,161.347 352.072,161.581C352.443,161.814 352.553,162.302 352.319,162.672L350.714,165.236C350.48,165.607 349.993,165.717 349.622,165.483C349.251,165.25 349.141,164.762 349.375,164.392L350.981,161.828ZM342.431,151.675C342.541,152.099 342.29,152.533 341.866,152.643C341.442,152.754 341.008,152.503 340.898,152.079C340.768,151.578 340.654,151.074 340.558,150.563C340.464,150.056 340.391,149.552 340.337,149.048C340.304,148.721 340.277,148.387 340.264,148.05C340.244,147.686 340.238,147.348 340.238,147.041C340.238,141.376 342.535,136.248 346.248,132.539C349.957,128.826 355.085,126.529 360.751,126.529C366.416,126.529 371.547,128.809 375.263,132.509C378.972,136.201 381.263,141.309 381.263,146.965C381.263,147.402 380.905,147.759 380.468,147.759C380.031,147.759 379.673,147.402 379.673,146.965C379.673,141.743 377.56,137.036 374.145,133.634C370.719,130.222 365.985,128.118 360.751,128.118C355.526,128.118 350.795,130.235 347.37,133.66C343.948,137.086 341.828,141.816 341.828,147.041C341.828,147.388 341.833,147.699 341.847,147.976C341.862,148.28 341.884,148.584 341.914,148.888C341.965,149.355 342.031,149.819 342.118,150.28C342.205,150.737 342.308,151.201 342.432,151.675L342.431,151.675ZM344.567,158.87C344.237,159.157 343.736,159.12 343.449,158.79C343.162,158.459 343.199,157.958 343.529,157.671C343.729,157.498 343.906,157.291 344.057,157.05C344.214,156.803 344.344,156.513 344.447,156.182C344.978,154.493 344.657,152.73 344.333,150.944C344.113,149.729 343.889,148.503 343.899,147.225C343.94,140.681 348.033,135.346 353.388,132.612C355.634,131.463 358.112,130.776 360.609,130.646C363.116,130.515 365.643,130.956 367.977,132.064C373.189,134.542 377.422,140.341 378.303,150.61C378.34,151.047 378.013,151.431 377.575,151.468C377.138,151.505 376.754,151.178 376.717,150.74C375.893,141.129 372.037,135.754 367.299,133.5C365.209,132.505 362.943,132.115 360.689,132.228C358.422,132.345 356.165,132.976 354.109,134.024C349.238,136.508 345.519,141.332 345.482,147.228C345.476,148.363 345.685,149.518 345.893,150.664C346.253,152.647 346.607,154.603 345.963,156.656C345.819,157.117 345.629,157.531 345.398,157.898C345.165,158.269 344.884,158.593 344.567,158.87ZM376.701,153.909C376.701,153.468 377.058,153.114 377.495,153.114C377.933,153.114 378.29,153.471 378.29,153.909L378.29,157.241C378.29,157.681 377.933,158.035 377.495,158.035C377.058,158.035 376.701,157.678 376.701,157.241L376.701,153.909ZM346.918,162.105C346.59,162.395 346.09,162.365 345.799,162.038C345.509,161.711 345.539,161.21 345.866,160.92C346.851,160.052 347.569,158.93 347.983,157.524C348.41,156.075 348.517,154.316 348.266,152.209C347.806,149.946 347.722,147.856 347.993,145.969C348.273,143.996 348.941,142.247 349.959,140.751C350.206,140.391 350.7,140.297 351.061,140.544C351.421,140.791 351.515,141.286 351.268,141.646C350.386,142.938 349.809,144.464 349.562,146.193C349.318,147.906 349.395,149.812 349.819,151.892C349.83,151.932 349.839,151.972 349.842,152.012C350.122,154.339 349.992,156.312 349.504,157.972C349.004,159.674 348.125,161.036 346.917,162.105L346.918,162.105ZM354.987,138.204C354.606,138.424 354.122,138.294 353.902,137.914C353.682,137.533 353.812,137.049 354.192,136.829C355.08,136.314 356.028,135.907 357.007,135.61C359.691,134.795 362.605,134.819 365.256,135.747C367.92,136.682 370.314,138.525 371.943,141.346C372.488,142.284 372.945,143.336 373.299,144.501C373.803,146.163 374.147,148.02 374.324,150.059C374.498,152.066 374.507,154.269 374.354,156.666C374.354,156.689 374.351,156.71 374.348,156.733L373.794,162.202C373.751,162.636 373.363,162.956 372.926,162.913C372.492,162.87 372.171,162.482 372.215,162.045L372.769,156.57L372.769,156.567C372.916,154.26 372.906,152.13 372.739,150.19C372.572,148.247 372.252,146.501 371.784,144.962C371.47,143.924 371.06,142.986 370.572,142.141C369.147,139.67 367.057,138.058 364.736,137.243C362.403,136.425 359.835,136.405 357.468,137.123C356.61,137.39 355.779,137.747 354.988,138.205L354.987,138.204ZM353.241,159.297C353.164,159.728 352.753,160.018 352.323,159.941C351.892,159.865 351.602,159.454 351.678,159.023C351.862,157.995 351.965,156.843 352.002,155.588C352.039,154.316 352.008,152.924 351.922,151.435C351.905,151.114 351.875,150.717 351.849,150.33C351.668,147.796 351.525,145.753 353.007,143.118C353.334,142.538 353.725,141.997 354.192,141.503C354.66,141.009 355.197,140.561 355.808,140.171C355.848,140.145 355.888,140.124 355.932,140.107C356.836,139.673 357.735,139.336 358.633,139.115C359.557,138.888 360.475,138.788 361.38,138.839C361.818,138.861 362.155,139.233 362.131,139.67C362.109,140.107 361.737,140.444 361.3,140.421C360.549,140.381 359.784,140.464 359.007,140.655C358.232,140.845 357.437,141.142 356.629,141.529C356.139,141.846 355.711,142.2 355.347,142.588C354.974,142.985 354.656,143.419 354.393,143.893C353.144,146.116 353.271,147.946 353.431,150.216C353.454,150.55 353.478,150.897 353.505,151.345C353.591,152.86 353.621,154.296 353.585,155.628C353.541,156.983 353.435,158.212 353.241,159.297ZM364.422,141.389C364.048,141.162 363.931,140.671 364.158,140.301C364.385,139.927 364.872,139.81 365.246,140.037C365.49,140.187 365.727,140.348 365.957,140.521C366.184,140.692 366.408,140.878 366.632,141.082C369.656,143.83 370.681,148.247 370.748,152.867C370.812,157.368 369.967,162.062 369.192,165.524C369.099,165.951 368.675,166.221 368.247,166.125C367.82,166.031 367.55,165.607 367.647,165.18C368.401,161.801 369.229,157.231 369.166,152.884C369.105,148.657 368.204,144.654 365.563,142.254C365.38,142.087 365.189,141.93 364.999,141.787C364.809,141.636 364.615,141.506 364.422,141.389ZM354.643,166.488C354.389,166.846 353.895,166.932 353.538,166.679C353.181,166.425 353.094,165.931 353.348,165.574C353.909,164.782 354.383,163.914 354.77,162.973C355.157,162.025 355.458,160.993 355.665,159.878C356.052,157.798 355.868,155.147 355.69,152.643C355.63,151.799 355.573,150.974 355.537,150.126C355.483,148.887 355.46,147.672 355.69,146.567C355.941,145.362 356.481,144.317 357.566,143.556C357.81,143.385 358.074,143.232 358.358,143.102C358.641,142.972 358.949,142.855 359.279,142.761C359.526,142.691 359.77,142.634 360.007,142.594C361.633,142.317 362.921,142.738 363.916,143.606C364.861,144.43 365.502,145.646 365.896,147.024C366.013,147.438 366.11,147.869 366.187,148.31C366.227,148.55 366.263,148.794 366.29,149.038C366.316,149.278 366.34,149.525 366.357,149.779C366.524,152.296 366.414,155.438 366.073,158.512C365.746,161.46 365.205,164.365 364.487,166.625C364.354,167.042 363.91,167.273 363.492,167.143C363.075,167.009 362.845,166.565 362.975,166.148C363.656,164.001 364.174,161.203 364.491,158.342C364.821,155.354 364.928,152.313 364.768,149.882C364.754,149.672 364.735,149.452 364.708,149.225C364.685,149.011 364.651,148.797 364.614,148.587C364.547,148.206 364.464,147.832 364.364,147.468C364.05,146.363 363.563,145.415 362.868,144.811C362.227,144.253 361.376,143.986 360.274,144.173C360.097,144.203 359.91,144.247 359.713,144.303C359.456,144.377 359.226,144.46 359.022,144.557C358.815,144.654 358.632,144.758 358.475,144.868C357.777,145.355 357.42,146.066 357.246,146.901C357.053,147.832 357.076,148.937 357.123,150.069C357.156,150.82 357.216,151.675 357.276,152.55C357.457,155.147 357.65,157.895 357.223,160.178C356.996,161.397 356.665,162.529 356.235,163.584C355.807,164.625 355.273,165.597 354.642,166.488L354.643,166.488ZM360.081,147.278C360.001,146.848 360.288,146.434 360.719,146.357C361.15,146.277 361.564,146.564 361.641,146.995C362.045,149.171 362.238,151.371 362.245,153.582C362.251,155.782 362.071,157.992 361.731,160.205C361.664,160.636 361.26,160.933 360.826,160.866C360.395,160.799 360.098,160.396 360.165,159.962C360.495,157.831 360.669,155.701 360.662,153.582C360.657,151.468 360.469,149.365 360.081,147.278ZM359.173,162.689C359.267,162.262 359.691,161.991 360.118,162.088C360.546,162.182 360.816,162.606 360.719,163.033L360.025,166.161C359.931,166.589 359.507,166.859 359.08,166.762C358.653,166.669 358.382,166.245 358.479,165.817L359.173,162.689Z" style="fill:rgb(255,145,25);fill-rule:nonzero;"/>
                </g>
                <g transform="matrix(0.0972768,0,0,0.467212,324.493,-398.487)">
                    <rect x="171.707" y="1111.62" width="534.09" height="111.201" style="fill:none;stroke:rgb(255,149,0);stroke-width:4.45px;"/>
                </g>
            </g>
        </g>
    </g>
    <g transform="matrix(1.01241,0,0,1.2459,176.57,-957.268)">
        <rect x="171.707" y="1111.62" width="534.09" height="111.201" style="fill:none;stroke:rgb(36,34,158);stroke-width:3.54px;"/>
    </g>
    <g transform="matrix(0.236781,0,0,0.358852,317.894,87.8897)">
        <rect x="171.707" y="1111.62" width="534.09" height="111.201" style="fill:none;stroke:rgb(255,149,0);stroke-width:13.32px;"/>
    </g>
    <g transform="matrix(0.00141917,0,0,0.00141917,35.3303,240.122)">
        <path d="M627.477,1753.06L2776,1753.06L2776,1148.46L2140.55,1148.46C2073.94,1148.46 1980.91,1112.34 1936.97,1068.41C1893.03,1024.47 1866.1,945.184 1866.1,878.57L1866.1,234.964L250.554,234.964C244.913,234.964 240.661,237.798 237.827,240.633C233.575,243.468 232.157,247.72 232.157,253.389L232.157,3527.52C232.157,3531.77 234.992,3537.44 237.827,3540.27C240.661,3544.5 246.331,3545.91 250.554,3545.91L2757.54,3545.91C2763.21,3545.91 2762.9,3543.11 2765.74,3540.27C2769.99,3537.44 2775.97,3531.77 2775.97,3527.52L2775.97,3184.27L627.477,3184.27C500.031,3184.27 395.036,3079.67 395.036,2951.86L395.036,1985.5C395.036,1857.66 499.635,1753.06 627.477,1753.06ZM986.117,2086.04L1199.39,2086.04L1199.39,2501.63C1199.39,2588.91 1192.48,2655.35 1178.62,2700.93C1164.67,2746.38 1136.66,2785.04 1094.57,2816.73C1052.45,2848.25 998.447,2864.13 932.854,2864.13C863.32,2864.13 809.518,2853.61 771.449,2832.78C733.181,2811.91 703.729,2781.47 682.923,2741.22C662.088,2701.13 649.786,2651.44 646.101,2592.31L848.778,2561.67C849.09,2595.15 851.811,2620.09 856.743,2636.31C861.732,2652.69 870.208,2665.7 882.255,2675.85C890.391,2682.45 901.928,2685.66 916.98,2685.66C940.791,2685.66 958.309,2675.85 969.506,2656.26C980.561,2636.65 986.145,2603.54 986.145,2557.05L986.145,2086.07L986.117,2086.04ZM1305.78,2598.18L1507.52,2584.09C1511.89,2620.4 1520.82,2648.21 1534.28,2667.09C1556.22,2697.93 1587.4,2713.41 1628.08,2713.41C1658.35,2713.41 1681.74,2705.58 1698.04,2689.71C1714.51,2673.89 1722.7,2655.5 1722.7,2634.69C1722.7,2614.93 1715.02,2597.1 1699.45,2581.43C1683.95,2565.75 1647.78,2551.15 1590.94,2537.07C1497.71,2513.91 1431.44,2482.92 1391.78,2444.26C1351.76,2405.79 1331.75,2356.61 1331.75,2296.77C1331.75,2257.57 1341.98,2220.55 1362.5,2185.62C1382.97,2150.53 1413.72,2123.09 1454.88,2103.16C1496.04,2083.21 1552.39,2073.23 1623.97,2073.23C1711.84,2073.23 1778.8,2091.4 1824.89,2127.91C1871.04,2164.22 1898.36,2222.14 1907.21,2301.59L1707.36,2314.77C1702.06,2280.05 1690.89,2254.76 1673.89,2239.09C1656.74,2223.21 1633.21,2215.39 1603.3,2215.39C1578.61,2215.39 1559.91,2221.26 1547.38,2232.85C1534.9,2244.44 1528.7,2258.7 1528.7,2275.43C1528.7,2287.53 1533.83,2298.42 1543.92,2308.22C1553.7,2318.4 1577.37,2327.64 1614.84,2336.37C1707.68,2358.65 1774.15,2381.27 1814.14,2404.03C1854.34,2426.85 1883.65,2455 1901.91,2488.85C1920.16,2522.52 1929.29,2560.28 1929.29,2602.12C1929.29,2651.13 1917.1,2696.34 1892.78,2737.87C1868.32,2779.2 1834.36,2810.72 1790.5,2832.09C1746.82,2853.47 1691.72,2864.15 1625.16,2864.15C1508.26,2864.15 1427.27,2839.04 1382.29,2788.98C1337.27,2738.95 1311.85,2675.34 1305.87,2598.21L1305.78,2598.18ZM2010.87,2469.2C2010.87,2344.34 2042.11,2247.08 2104.67,2177.6C2167.28,2107.96 2254.39,2073.23 2366.14,2073.23C2480.6,2073.23 2568.81,2107.45 2630.72,2175.65C2692.69,2244.05 2723.61,2339.89 2723.61,2462.99C2723.61,2552.4 2710.15,2625.59 2683.08,2682.79C2656.03,2740 2616.83,2784.53 2565.72,2816.39C2514.5,2848.25 2450.78,2864.13 2374.44,2864.13C2296.97,2864.13 2232.74,2850.43 2181.86,2822.97C2131.06,2795.36 2089.76,2751.9 2058.21,2692.4C2026.66,2633.1 2010.81,2558.64 2010.81,2469.2L2010.87,2469.2ZM2223.16,2469.74C2223.16,2546.87 2236.11,2602.43 2261.93,2636.08C2287.81,2669.75 2323.08,2686.68 2367.55,2686.68C2413.19,2686.68 2448.76,2670.12 2473.71,2637.16C2498.85,2604.05 2511.35,2544.92 2511.35,2459.22C2511.35,2387.25 2498.23,2334.73 2472.12,2301.59C2445.87,2268.26 2410.47,2251.7 2365.65,2251.7C2322.76,2251.7 2288.15,2268.62 2262.22,2302.3C2236.11,2335.97 2223.16,2391.9 2223.16,2469.74ZM2815.82,2086.04L3014.22,2086.04L3272.12,2508.55L3272.12,2086.04L3472.89,2086.04L3472.89,2851.28L3272.12,2851.28L3015.64,2431.08L3015.64,2851.28L2815.82,2851.28L2815.82,2086.04ZM3007.76,1753.06L3513.37,1753.06C3641.22,1753.06 3745.81,1858.05 3745.81,1985.5L3745.81,2951.86C3745.81,3079.3 3640.85,3184.27 3513.37,3184.27L3007.76,3184.27L3007.76,3600.96C3007.76,3650.57 2987.94,3694.48 2955.32,3727.11C2922.72,3759.68 2878.78,3779.55 2829.18,3779.55L178.498,3779.55C128.891,3779.55 84.983,3759.7 52.356,3727.11C19.786,3694.51 -0.085,3650.57 -0.085,3600.96L-0.085,179.972C-0.085,130.365 19.757,86.428 52.356,53.83C84.954,21.231 130.309,1.389 178.498,1.389L1984.54,1.389C1988.79,-0.028 1993.04,-0.028 1997.29,-0.028C2017.13,-0.028 2036.98,8.476 2051.15,21.203L2053.98,21.203C2056.82,22.62 2058.24,24.038 2061.07,26.872L2983.64,960.803C2999.22,976.394 3010.56,997.654 3010.56,1021.75C3010.56,1028.84 3009.15,1034.5 3007.73,1041.59L3007.73,1753.03L3007.76,1753.06ZM2076.69,860.23L2076.69,274.932L2735.69,942.406L2158.87,942.406C2136.22,942.406 2116.38,932.485 2100.76,918.34C2086.61,904.167 2076.69,882.907 2076.69,860.23Z" style="fill:rgb(255,149,0);"/>
    </g>
    <g transform="matrix(0.0376719,0,0,0.0376719,570.407,839.867)">
        <path d="M627.477,1753.06L2776,1753.06L2776,1148.46L2140.55,1148.46C2073.94,1148.46 1980.91,1112.34 1936.97,1068.41C1893.03,1024.47 1866.1,945.184 1866.1,878.57L1866.1,234.964L250.554,234.964C244.913,234.964 240.661,237.798 237.827,240.633C233.575,243.468 232.157,247.72 232.157,253.389L232.157,3527.52C232.157,3531.77 234.992,3537.44 237.827,3540.27C240.661,3544.5 246.331,3545.91 250.554,3545.91L2757.54,3545.91C2763.21,3545.91 2762.9,3543.11 2765.74,3540.27C2769.99,3537.44 2775.97,3531.77 2775.97,3527.52L2775.97,3184.27L627.477,3184.27C500.031,3184.27 395.036,3079.67 395.036,2951.86L395.036,1985.5C395.036,1857.66 499.635,1753.06 627.477,1753.06ZM986.117,2086.04L1199.39,2086.04L1199.39,2501.63C1199.39,2588.91 1192.48,2655.35 1178.62,2700.93C1164.67,2746.38 1136.66,2785.04 1094.57,2816.73C1052.45,2848.25 998.447,2864.13 932.854,2864.13C863.32,2864.13 809.518,2853.61 771.449,2832.78C733.181,2811.91 703.729,2781.47 682.923,2741.22C662.088,2701.13 649.786,2651.44 646.101,2592.31L848.778,2561.67C849.09,2595.15 851.811,2620.09 856.743,2636.31C861.732,2652.69 870.208,2665.7 882.255,2675.85C890.391,2682.45 901.928,2685.66 916.98,2685.66C940.791,2685.66 958.309,2675.85 969.506,2656.26C980.561,2636.65 986.145,2603.54 986.145,2557.05L986.145,2086.07L986.117,2086.04ZM1305.78,2598.18L1507.52,2584.09C1511.89,2620.4 1520.82,2648.21 1534.28,2667.09C1556.22,2697.93 1587.4,2713.41 1628.08,2713.41C1658.35,2713.41 1681.74,2705.58 1698.04,2689.71C1714.51,2673.89 1722.7,2655.5 1722.7,2634.69C1722.7,2614.93 1715.02,2597.1 1699.45,2581.43C1683.95,2565.75 1647.78,2551.15 1590.94,2537.07C1497.71,2513.91 1431.44,2482.92 1391.78,2444.26C1351.76,2405.79 1331.75,2356.61 1331.75,2296.77C1331.75,2257.57 1341.98,2220.55 1362.5,2185.62C1382.97,2150.53 1413.72,2123.09 1454.88,2103.16C1496.04,2083.21 1552.39,2073.23 1623.97,2073.23C1711.84,2073.23 1778.8,2091.4 1824.89,2127.91C1871.04,2164.22 1898.36,2222.14 1907.21,2301.59L1707.36,2314.77C1702.06,2280.05 1690.89,2254.76 1673.89,2239.09C1656.74,2223.21 1633.21,2215.39 1603.3,2215.39C1578.61,2215.39 1559.91,2221.26 1547.38,2232.85C1534.9,2244.44 1528.7,2258.7 1528.7,2275.43C1528.7,2287.53 1533.83,2298.42 1543.92,2308.22C1553.7,2318.4 1577.37,2327.64 1614.84,2336.37C1707.68,2358.65 1774.15,2381.27 1814.14,2404.03C1854.34,2426.85 1883.65,2455 1901.91,2488.85C1920.16,2522.52 1929.29,2560.28 1929.29,2602.12C1929.29,2651.13 1917.1,2696.34 1892.78,2737.87C1868.32,2779.2 1834.36,2810.72 1790.5,2832.09C1746.82,2853.47 1691.72,2864.15 1625.16,2864.15C1508.26,2864.15 1427.27,2839.04 1382.29,2788.98C1337.27,2738.95 1311.85,2675.34 1305.87,2598.21L1305.78,2598.18ZM2010.87,2469.2C2010.87,2344.34 2042.11,2247.08 2104.67,2177.6C2167.28,2107.96 2254.39,2073.23 2366.14,2073.23C2480.6,2073.23 2568.81,2107.45 2630.72,2175.65C2692.69,2244.05 2723.61,2339.89 2723.61,2462.99C2723.61,2552.4 2710.15,2625.59 2683.08,2682.79C2656.03,2740 2616.83,2784.53 2565.72,2816.39C2514.5,2848.25 2450.78,2864.13 2374.44,2864.13C2296.97,2864.13 2232.74,2850.43 2181.86,2822.97C2131.06,2795.36 2089.76,2751.9 2058.21,2692.4C2026.66,2633.1 2010.81,2558.64 2010.81,2469.2L2010.87,2469.2ZM2223.16,2469.74C2223.16,2546.87 2236.11,2602.43 2261.93,2636.08C2287.81,2669.75 2323.08,2686.68 2367.55,2686.68C2413.19,2686.68 2448.76,2670.12 2473.71,2637.16C2498.85,2604.05 2511.35,2544.92 2511.35,2459.22C2511.35,2387.25 2498.23,2334.73 2472.12,2301.59C2445.87,2268.26 2410.47,2251.7 2365.65,2251.7C2322.76,2251.7 2288.15,2268.62 2262.22,2302.3C2236.11,2335.97 2223.16,2391.9 2223.16,2469.74ZM2815.82,2086.04L3014.22,2086.04L3272.12,2508.55L3272.12,2086.04L3472.89,2086.04L3472.89,2851.28L3272.12,2851.28L3015.64,2431.08L3015.64,2851.28L2815.82,2851.28L2815.82,2086.04ZM3007.76,1753.06L3513.37,1753.06C3641.22,1753.06 3745.81,1858.05 3745.81,1985.5L3745.81,2951.86C3745.81,3079.3 3640.85,3184.27 3513.37,3184.27L3007.76,3184.27L3007.76,3600.96C3007.76,3650.57 2987.94,3694.48 2955.32,3727.11C2922.72,3759.68 2878.78,3779.55 2829.18,3779.55L178.498,3779.55C128.891,3779.55 84.983,3759.7 52.356,3727.11C19.786,3694.51 -0.085,3650.57 -0.085,3600.96L-0.085,179.972C-0.085,130.365 19.757,86.428 52.356,53.83C84.954,21.231 130.309,1.389 178.498,1.389L1984.54,1.389C1988.79,-0.028 1993.04,-0.028 1997.29,-0.028C2017.13,-0.028 2036.98,8.476 2051.15,21.203L2053.98,21.203C2056.82,22.62 2058.24,24.038 2061.07,26.872L2983.64,960.803C2999.22,976.394 3010.56,997.654 3010.56,1021.75C3010.56,1028.84 3009.15,1034.5 3007.73,1041.59L3007.73,1753.03L3007.76,1753.06ZM2076.69,860.23L2076.69,274.932L2735.69,942.406L2158.87,942.406C2136.22,942.406 2116.38,932.485 2100.76,918.34C2086.61,904.167 2076.69,882.907 2076.69,860.23Z"/>
    </g>
    <g transform="matrix(1,0,0,1,-92.0484,-534.421)">
        <g transform="matrix(1,0,0,1,378.693,775.5)">
            <text x="0px" y="0px" style="font-family:'Menlo-Regular', 'Menlo', monospace;font-size:32px;fill:rgb(114,122,145);">14</text>
        </g>
        <g transform="matrix(1,0,0,1,378.693,820.833)">
            <text x="0px" y="0px" style="font-family:'Menlo-Regular', 'Menlo', monospace;font-size:32px;fill:rgb(114,122,145);">15</text>
        </g>
        <g transform="matrix(1,0,0,1,378.693,866.166)">
            <text x="0px" y="0px" style="font-family:'Menlo-Regular', 'Menlo', monospace;font-size:32px;fill:rgb(114,122,145);">16</text>
        </g>
        <g transform="matrix(1,0,0,1,378.693,911.496)">
            <text x="0px" y="0px" style="font-family:'Menlo-Regular', 'Menlo', monospace;font-size:32px;fill:rgb(114,122,145);">17</text>
        </g>
        <g transform="matrix(1,0,0,1,378.693,956.836)">
            <text x="0px" y="0px" style="font-family:'Menlo-Regular', 'Menlo', monospace;font-size:32px;fill:rgb(114,122,145);">18</text>
        </g>
        <g transform="matrix(1,0,0,1,378.693,1002.17)">
            <text x="0px" y="0px" style="font-family:'Menlo-Regular', 'Menlo', monospace;font-size:32px;fill:rgb(114,122,145);">19</text>
        </g>
        <g transform="matrix(1,0,0,1,378.693,1047.5)">
            <text x="0px" y="0px" style="font-family:'Menlo-Regular', 'Menlo', monospace;font-size:32px;fill:rgb(114,122,145);">20</text>
        </g>
        <g transform="matrix(1,0,0,1,378.693,1092.84)">
            <text x="0px" y="0px" style="font-family:'Menlo-Regular', 'Menlo', monospace;font-size:32px;fill:rgb(114,122,145);">21</text>
        </g>
        <g transform="matrix(1,0,0,1,378.693,1138.17)">
            <text x="0px" y="0px" style="font-family:'Menlo-Regular', 'Menlo', monospace;font-size:32px;fill:rgb(114,122,145);">22</text>
        </g>
    </g>
    <g transform="matrix(1.00356,-0.777566,0.686107,0.995779,-322.198,483.316)">
        <g transform="matrix(-0.522529,-0.408023,0.360031,-0.526612,989.548,3096.65)">
            <path d="M2713.74,2447.64L2727.59,2433.79L2741.44,2447.64" style="fill:none;stroke:rgb(255,149,0);stroke-width:4.97px;"/>
        </g>
        <g transform="matrix(-0.522529,-0.408023,0.360031,-0.526612,1015.95,3117.26)">
            <path d="M2713.74,2447.64L2727.59,2433.79L2741.44,2447.64" style="fill:none;stroke:rgb(36,34,158);stroke-width:4.97px;"/>
        </g>
        <g transform="matrix(0.64964,0.507279,-0.447612,0.654716,659.138,-121.831)">
            <path d="M345.905,894.941L345.905,990.39" style="fill:none;stroke:rgb(255,149,0);stroke-width:4px;stroke-miterlimit:1.5;"/>
        </g>
        <g transform="matrix(0.64964,0.507279,-0.447612,0.654716,659.973,-121.179)">
            <path d="M385.264,894.941L385.264,990.39" style="fill:none;stroke:rgb(36,34,158);stroke-width:4px;stroke-miterlimit:1.5;"/>
        </g>
    </g>
    <g transform="matrix(1,0,0,1,258.495,-150.524)">
        <path d="M273.835,756.396L163.854,677.226" style="fill:none;stroke:rgb(255,149,0);stroke-width:4px;stroke-miterlimit:1.5;"/>
    </g>
</svg>
